<svg version="1.2" xmlns="http://www.w3.org/2000/svg" viewBox="0 0 241 36" width="241" height="36"><style></style><path fill-rule="evenodd" d="m7.6 0.7q4.1 0 5.9 1.9 1.7 1.9 1.7 5.8v1.7q0 2.7-0.9 4.5-0.9 1.7-3.2 2.4 2.6 0.7 3.6 2.6 1.1 1.9 1.1 4.8v2.9q0 4-1.9 6.1-2 2.1-6 2.1h-8v-34.8zm-1 14.8q2.3 0 3.5-1 1.2-0.9 1.2-3.6v-2.1q0-2.3-0.9-3.4-0.9-1.2-2.9-1.2h-3.9v11.3zm1.2 16.5q4.1 0 4.1-4.8v-3q0-3-1.2-4.1-1.1-1.1-3.7-1.1h-3.4v13z"/><path  d="m24.8 27.3q0 2.4 0.9 3.7 1 1.3 3.1 1.3 2.1 0 3.1-1.3 0.9-1.3 0.9-3.7v-26.6h3.7v26.4q0 4-1.9 6.4-1.9 2.4-5.9 2.4-4 0-5.9-2.4-1.9-2.4-1.9-6.4v-26.4h3.9z"/><path  d="m49.5 0.4q4.1 0 6 2.4 1.9 2.3 1.9 6.3v3h-3.7v-3.2q0-2.4-1-3.7-0.9-1.3-3.1-1.3-2.1 0-3 1.3-1 1.3-1 3.7v18.4q0 2.4 1 3.7 0.9 1.3 3 1.3 2.2 0 3.1-1.3 1-1.3 1-3.7v-7h-3.6v-3.4h7.3v10.2q0 4-1.9 6.4-1.9 2.3-6 2.3-3.9 0-5.9-2.3-1.9-2.4-1.9-6.4v-18q0-2 0.5-3.6 0.5-1.6 1.5-2.7 0.9-1.2 2.4-1.8 1.4-0.6 3.4-0.6z"/><path  d="m76.1 0.7v34.8h-3.9v-34.8z"/><path  d="m85.3 35.5h-3.5v-34.8h4.9l8.1 25.2v-25.2h3.4v34.8h-4l-8.9-28.1z"/><path  d="m111.2 0.4q4 0 5.9 2.3 1.9 2.4 1.9 6.4v0.9h-3.7v-1.1q0-2.4-1-3.7-0.9-1.3-3-1.3-2.1 0-3 1.3-1 1.3-1 3.6 0 2 0.9 3.4 0.9 1.4 2.2 2.7 1.2 1.2 2.8 2.3 1.5 1.2 2.8 2.6 1.3 1.4 2.1 3.2 0.9 1.7 0.9 4.2 0 3.9-1.9 6.3-1.9 2.3-6 2.3-4 0-5.9-2.3-1.9-2.4-1.8-6.3v-2h3.6v2.1q0 2.4 1 3.7 1 1.3 3.1 1.3 2 0 3-1.3 1-1.3 1-3.7 0-1.9-0.8-3.3-0.9-1.4-2.2-2.6-1.3-1.3-2.8-2.4-1.5-1.2-2.8-2.6-1.3-1.4-2.1-3.1-0.9-1.8-0.9-4.2 0-4.1 1.9-6.4 1.9-2.3 5.8-2.3z"/><path fill-rule="evenodd" d="m131.7 0.7q4.2 0 6 2.3 1.8 2.2 1.8 6.2v4.2q0 4.2-1.9 6.3-2 2.1-6.2 2.1h-3.4v13.7h-3.9v-34.8zm-0.3 17.6q2.2 0 3.2-1.1 1.1-1 1.1-3.6v-4.6q0-2.4-0.9-3.6-1-1.1-3.1-1.2h-3.7v14.1z"/><path  d="m156.8 16.1v3.5h-8.5v12.4h10.5v3.5h-14.4v-34.8h14.4v3.5h-10.5v11.9z"/><path  d="m171.6 0.4q4 0 5.9 2.4 1.9 2.3 1.9 6.3v3.1h-3.7v-3.3q0-2.4-0.9-3.7-1-1.3-3.1-1.3-2.1 0-3.1 1.3-1 1.3-1 3.7v18.4q0 2.4 1 3.7 1 1.3 3.1 1.3 2.1 0 3.1-1.3 0.9-1.3 0.9-3.7v-4.5h3.7v4.3q0 4-1.9 6.4-1.9 2.3-5.9 2.3-4 0-5.9-2.3-1.9-2.4-1.9-6.4v-18q0-2 0.4-3.6 0.5-1.6 1.5-2.7 1-1.2 2.4-1.8 1.5-0.6 3.5-0.6z"/><path  d="m189.8 35.5v-31.3h-6.5v-3.5h16.8v3.5h-6.5v31.3z"/><path fill-rule="evenodd" d="m204.2 9.1q0-4 1.9-6.4 2-2.3 6-2.3 4 0 6 2.3 2 2.4 2 6.4v18q0 4-2 6.4-2 2.3-6 2.3-4 0-6-2.3-1.9-2.4-1.9-6.4zm3.8 18.2q0 2.4 1 3.7 1 1.3 3.1 1.3 2.2 0 3.1-1.3 1-1.3 1-3.7v-18.4q0-2.4-1-3.7-0.9-1.3-3.1-1.3-2.1 0-3.1 1.3-1 1.3-1 3.7z"/><path fill-rule="evenodd" d="m233.3 0.7q4.1 0 5.9 2.1 1.8 2 1.8 5.9v2.8q0 2.9-1 4.7-1 1.8-3.3 2.5 2.4 0.7 3.4 2.5 1 1.9 1 4.7v5.4q0 1.2 0.1 2.2 0.1 1.1 0.6 2h-3.9q-0.4-0.7-0.5-1.6-0.2-0.9-0.2-2.6v-5.5q0-2.9-1.3-4-1.3-1.2-3.8-1.2h-2.7v14.9h-3.9v-34.8zm-0.9 16.4q2.3 0 3.6-1 1.3-0.9 1.3-3.8v-3.3q0-2.4-1-3.6-0.9-1.1-3.1-1.2h-3.7v12.9z"/></svg>