<svg version="1.2" xmlns="http://www.w3.org/2000/svg" viewBox="0 0 207 197" width="207" height="197"><defs><clipPath clipPathUnits="userSpaceOnUse" id="cp1"><path d="m115.34 18.55h92.2v94.45h-92.2z"/></clipPath><clipPath clipPathUnits="userSpaceOnUse" id="cp2"><path d="m164.77 18.93c2.35 0.1 3.44 1.28 3.55 3.65v0.64c0.05 6.61 0.06 6.58 6.05 8.41q0.83 0.26 1.55 0.26c1.21 0 2.22-0.56 3.06-1.76l2.71-3.67c0.72-0.86 1.57-1.37 2.5-1.37q0.84-0.01 1.76 0.61c2.11 1.44 4.2 2.93 6.18 4.55 0.67 0.55 0.98 1.54 1.58 2.56l-2.67 4.07c-2.5 3.46-1.31 8.5 2.65 10.3q0.61 0.25 1.36 0.25c0.7 0 1.45-0.15 2.07-0.35 2.48-0.79 4.08-1.29 5.21-1.29 2.01 0 2.54 1.58 3.89 5.9l0.14 0.46c1.73 5.33 1.41 5.96-3.74 7.62-4.31 1.39-6.22 5.44-4.21 9.54 0.52 1.04 1.91 1.97 3.09 2.31 7.22 2.07 6.52 3.28 4.54 9.18l-1.01 2.96c-0.62 1.51-1.58 2.38-2.95 2.38q-0.66 0-1.45-0.28l-0.61-0.17c-2.43-0.78-3.92-1.26-5.04-1.26-1.77 0-2.62 1.2-4.84 4.29-1.2 1.68-1.25 3.21-0.05 4.84l2.52 3.51c1.19 1.73 1.02 3.37-0.6 4.68q-2.81 2.26-5.82 4.25-1.04 0.66-2.02 0.66c-0.97 0-1.88-0.49-2.66-1.47l-2.69-3.69c-0.78-1.03-1.72-1.61-2.84-1.61q-0.65 0-1.38 0.27l-0.15 0.03c-6.04 1.88-6.04 1.88-6.09 8.13-0.04 3.65-0.93 4.56-4.54 4.6l-5.29-0.02c-2.74-0.08-3.76-1.11-3.87-3.79l-0.02-0.48c0.28-8-1.05-6.58-6.91-8.55q-0.21-0.06-0.44-0.06c-0.9 0-2.14 0.66-2.86 1.29-1.18 1.04-1.98 2.5-2.94 3.78-0.79 1.06-1.7 1.56-2.67 1.56q-1.04 0-2.17-0.74l-5.44-3.96c-1.81-1.43-2.02-3.12-0.77-5.05l0.39-0.51c4.62-6 3.31-5.76-0.35-10.67-0.6-0.81-2.24-1.14-3.49-1.14q-0.14 0-0.27 0.01c-1.47 0.06-2.91 0.82-4.36 1.26q-0.75 0.22-1.42 0.22c-1.4 0-2.47-0.76-3.03-2.28-0.79-2.18-1.51-4.39-2.09-6.63-0.61-2.36 0.17-3.62 2.45-4.44l0.6-0.21c6.23-2.05 6.41-2.36 6.04-8.65-0.1-1.73-0.88-2.86-2.51-3.42l-4.32-1.44c-2.16-0.72-2.83-2.27-2.25-4.34l2.1-6.63c0.56-1.57 1.64-2.28 3.02-2.28q0.59 0 1.23 0.16l3.87 1.27c0.55 0.17 1.13 0.42 1.67 0.42q0.1 0 0.19-0.01c3.14-0.37 3.94-3.32 5.36-5.39 0.58-0.84 0.03-2.73-0.45-3.95-0.49-1.23-1.59-2.2-2.34-3.33q-1.95-2.92 0.76-5.03l5.43-3.97q1.13-0.8 2.13-0.79c0.99 0 1.87 0.55 2.67 1.58l2.44 3.28c0.39 0.5 0.79 1.04 1.3 1.39 0.54 0.36 1.23 0.52 1.99 0.52 3.09 0 7.34-2.66 7.46-5.29l0.05-4.09c0.1-2.41 1.15-3.5 3.57-3.59zm-27.91 46.7c-0.11 13.77 10.61 24.82 24.18 24.92q0.11 0 0.21 0c13.7 0 24.58-10.67 24.94-24.04 0.35-13.24-10.4-25.3-24.63-25.33q-0.03 0-0.07 0c-13.58-0.01-24.52 10.82-24.63 24.44z"/></clipPath><clipPath clipPathUnits="userSpaceOnUse" id="cp3"><path d="m20.27 49h149.73v99h-149.73z"/></clipPath><clipPath clipPathUnits="userSpaceOnUse" id="cp4"><path d="m161.63 118.2c2.77-0.44 5.26-0.83 7.86-1.23 0 6.4 0.57 13.07-0.15 19.59-0.78 6.97-6.58 11.17-13.78 11.18l-81.56 0.01c-13.07 0-26.14-0.16-39.21 0.05-7.81 0.13-14.44-6.21-14.35-14.37q0.39-34.9 0-69.78c-0.08-7.85 5.93-14.52 14.5-14.47 25.09 0.14 50.2 0.05 75.3 0.05 0.55 0 1.1 0 1.85 0-0.62 2.7-1.2 5.22-1.83 8.02h-2.53q-35.72 0-71.44 0c-5.32 0-7.66 2.29-7.66 7.52v67.38c0 5.4 2.15 7.54 7.6 7.54l117.88 0.01c5.08 0 7.51-2.41 7.52-7.47 0 0 0-14.03 0-14.03z"/></clipPath><clipPath clipPathUnits="userSpaceOnUse" id="cp5"><path d="m13.06 157h163.75v11h-163.75z"/></clipPath><clipPath clipPathUnits="userSpaceOnUse" id="cp6"><path d="m176.53 157.13c0.11 5.74-4.26 10.5-10.17 10.62-17.22 0.38-34.44 0.14-51.63 0.14-1.51-5.59-2.57-6.41-8.37-6.43h-23.56c-4.74 0.01-6.5 1.58-7.18 6.36l-1.83 0.16c-15.87 0-31.74 0.06-47.61-0.07-2.23-0.02-4.62-0.59-6.68-1.48-3.84-1.67-5.73-4.91-6.06-9.29z"/></clipPath><clipPath clipPathUnits="userSpaceOnUse" id="cp7"><path d="m-0.38-0.18h128.69v95.18h-128.69z"/></clipPath><clipPath clipPathUnits="userSpaceOnUse" id="cp8"><path d="m46.05-0.18q-3.08 0.01-6.22 0.26c-10.17 0.83-19.41 4.11-26.94 11.26-10.62 10.09-13.6 23.04-13.24 37.04 0.28 10.89 2.83 21.39 6.66 31.57 1.9 5.05 4.15 9.97 6.24 14.96l0.25-0.08 0.5-0.16c0-3.84 0.12-7.69-0.05-11.53-0.07-1.78-0.43-3.65-1.1-5.3-5.58-13.86-9.66-27.93-8.06-43.18 1.72-16.37 13.39-28.35 29.76-30.36q3.78-0.46 7.51-0.46c8.24 0 16.28 1.6 24.21 4.07 18.33 5.73 34.64 15.3 49.91 26.76 3.42 2.56 6.75 5.27 10.24 8.02 0.96-1.32 1.74-2.41 2.48-3.42l-3.91-6.45c-0.66-1.04-1.26-2.23-2.2-2.93-9.51-7.12-19.56-13.38-30.34-18.4-14.5-6.76-29.44-11.64-45.41-11.67z"/></clipPath><clipPath clipPathUnits="userSpaceOnUse" id="cp9"><path d="m85.57 111h111.43v86.66h-111.43z"/></clipPath><clipPath clipPathUnits="userSpaceOnUse" id="cp10"><path d="m180.34 111.17q0.01-0.01 0-0.01 0 0 0 0.01zm0 0c-0.01 0.02-0.05 0.1-0.17 0.3q0.15 0.03 0.31 0.06l-0.14-0.33q-0.01-0.02 0-0.03zm0.14 0.36l3.34 7.83c5.48 13.49 9.2 27.26 7.6 42.08-1.48 13.83-9.96 24.53-23.21 28.65-4.57 1.41-9.18 1.99-13.81 1.99-4.19 0-8.39-0.47-12.6-1.22-13.38-2.39-25.93-7.29-37.57-14.13-3.19-1.88-6.39-2.27-9.61-2.27-2.25 0-4.51 0.2-6.78 0.2q-0.98 0-1.97-0.06c0.81 0.88 1.69 1.53 2.64 2.03 6.42 3.43 12.71 7.18 19.33 10.17 13.77 6.22 27.96 10.38 43.06 10.38q3.34 0.01 6.73-0.27c21.43-1.78 37.28-17.62 39.08-39.05 0.93-11.06-0.6-21.73-3.56-32.28-1.24-4.43-2.94-8.74-4.17-12.35-3.24-0.64-5.8-1.16-8.5-1.7z"/></clipPath><clipPath clipPathUnits="userSpaceOnUse" id="cp11"><path d="m76 86.73h38.38v39.38h-38.38z"/></clipPath><clipPath clipPathUnits="userSpaceOnUse" id="cp12"><path d="m78.72 98.34c1.01 0.08 2.12 0.47 3.01 0.19 1.61-0.51 2.07-2.75 0.91-4.31-1.32-1.79-0.35-2.66 1.03-3.66 1.33-0.97 2.52-1.56 3.57 0.24 0.76 1.3 1.72 1.67 3.21 1.2 1.54-0.5 1.96-1.46 1.83-2.91-0.21-2.23 1.34-2.15 2.84-2.16 1.56-0.02 3.01 0.06 2.84 2.21-0.12 1.44 0.25 2.41 1.83 2.88 1.54 0.48 2.43-0.06 3.18-1.29 1.14-1.86 2.33-0.98 3.59-0.1 1.3 0.92 2.35 1.84 0.97 3.46-0.94 1.11-1.13 2.13-0.17 3.43 0.95 1.3 1.93 1.43 3.3 0.86 1.91-0.79 2.53 0.46 3.02 1.99 0.47 1.5 0.83 2.87-1.22 3.41-1.38 0.36-2.19 0.97-2.17 2.63 0.02 1.61 0.75 2.32 2.16 2.67 2.26 0.58 1.6 2.05 1.16 3.59-0.48 1.7-1.32 2.58-3.09 1.79-1.31-0.58-2.21-0.41-3.09 0.79-0.92 1.26-0.92 2.3 0.07 3.45 1.35 1.53 0.58 2.52-0.83 3.47-1.35 0.92-2.61 1.85-3.78-0.11-0.79-1.33-1.82-1.63-3.25-1.17-1.43 0.45-1.77 1.44-1.66 2.78 0.19 2.27-1.34 2.34-2.99 2.34-1.6 0-2.97-0.17-2.74-2.3 0.15-1.35-0.25-2.34-1.68-2.77-1.37-0.41-2.46-0.35-3.26 1.08-1.07 1.92-2.34 1.27-3.74 0.25-1.42-1.04-2.34-2.06-0.88-3.68 0.94-1.04 1.06-1.97 0.16-3.18-0.91-1.21-1.79-1.63-3.25-0.95-1.57 0.74-2.53 0.12-2.96-1.6-0.37-1.52-1.46-3.11 1.07-3.77 1.36-0.36 2.16-1.03 2.16-2.67 0-1.64-0.78-2.24-2.16-2.65-1.1-0.34-2.2-0.91-1.46-2.41 0.6-1.22 0.18-3.28 2.47-3.02zm26.58 8.13c0.02-5.74-4.41-10.26-10.11-10.3-5.79-0.05-10.45 4.55-10.44 10.3 0.01 5.6 4.61 10.15 10.33 10.21 5.64 0.07 10.21-4.49 10.22-10.21z"/></clipPath><clipPath clipPathUnits="userSpaceOnUse" id="cp13"><path d="m42.84 68.49h25.93v26.41h-25.93z"/></clipPath><clipPath clipPathUnits="userSpaceOnUse" id="cp14"><path d="m47.52 92.13l-2.09-2.39c0.32-0.47 0.68-0.82 0.81-1.24 0.22-0.68 0.59-1.55 0.34-2.08-0.24-0.53-1.22-1.11-1.78-1.03-1.55 0.22-1.97-0.74-1.9-1.77 0.05-0.69 0.71-1.6 1.35-1.94 1.69-0.9 1.86-2.11 0.52-3.47-0.5-0.51-0.81-1.56-0.68-2.26 0.23-1.16 1.02-1.56 2.36-1.11 2.01 0.67 2.78-0.36 2.41-2.52-0.11-0.64 0.45-1.78 1.01-2.05 0.58-0.27 1.79-0.01 2.26 0.48 1.5 1.53 2.95 1.48 3.46-0.53 0.39-1.54 1.36-1.59 2.29-1.21 0.65 0.26 1.32 1.19 1.42 1.9 0.3 1.93 1.47 2.66 3.03 1.46q1.69-1.3 2.56 0.29c0.34 0.63 0.44 1.72 0.12 2.33-0.93 1.76-0.48 3.03 1.47 3.02 1.36 0 1.86 0.49 2.07 1.72 0.22 1.3-0.25 1.81-1.52 2.16-1.65 0.46-1.9 2.26-0.44 3.21 1.14 0.75 1.32 1.37 0.69 2.52-0.58 1.08-1.12 1.5-2.44 0.97-1.68-0.69-2.94 0.46-2.32 2.16 0.5 1.39 0.16 2.02-1.04 2.66-1.23 0.65-1.77 0.22-2.47-0.85-0.94-1.43-2.45-1.02-3.27 0.57-0.33 0.63-1.18 1.34-1.83 1.39-1.15 0.09-2.2-0.32-1.91-2 0.09-0.51-0.43-1.46-0.89-1.64-0.58-0.23-1.41 0.06-2.1 0.26-0.42 0.13-0.77 0.5-1.49 0.99zm1.34-10.47c-0.03 3.8 2.99 6.89 6.76 6.93 3.79 0.02 6.85-3.01 6.88-6.81 0.02-3.8-2.98-6.89-6.76-6.94-3.74-0.06-6.85 3.02-6.88 6.82z"/></clipPath><clipPath clipPathUnits="userSpaceOnUse" id="cp15"><path d="m145.6 50h32.17v31.93h-32.17z"/></clipPath><clipPath clipPathUnits="userSpaceOnUse" id="cp16"><path d="m145.69 65.71c0.1-8.8 7.23-15.73 16.09-15.61 8.54 0.11 15.73 7.49 15.57 15.99-0.16 8.62-7.39 15.72-15.93 15.65-8.77-0.07-15.83-7.26-15.73-16.03z"/></clipPath></defs><style>.a{fill:#0370ef}.b{fill:#0097b2}</style><g clip-path="url(#cp1)"><g clip-path="url(#cp2)"><path class="a" d="m-2.8-2.6h212.7v202.2h-212.7z"/></g></g><g clip-path="url(#cp3)"><g clip-path="url(#cp4)"><path class="b" d="m-2.8-2.6h212.7v202.2h-212.7z"/></g></g><g clip-path="url(#cp5)"><g clip-path="url(#cp6)"><path class="b" d="m-2.8-2.6h212.7v202.2h-212.7z"/></g></g><g clip-path="url(#cp7)"><g clip-path="url(#cp8)"><path class="a" d="m-2.8-2.6h212.7v202.2h-212.7z"/></g></g><g clip-path="url(#cp9)"><g clip-path="url(#cp10)"><path class="a" d="m-2.8-2.6h212.7v202.2h-212.7z"/></g></g><g clip-path="url(#cp11)"><g clip-path="url(#cp12)"><path class="a" d="m-2.8-2.6h212.7v202.2h-212.7z"/></g></g><g clip-path="url(#cp13)"><g clip-path="url(#cp14)"><path class="a" d="m-2.8-2.6h212.7v202.2h-212.7z"/></g></g><g clip-path="url(#cp15)"><g clip-path="url(#cp16)"><path class="a" d="m-2.8-2.6h212.7v202.2h-212.7z"/></g></g></svg>