<svg version="1.2" xmlns="http://www.w3.org/2000/svg" viewBox="0 0 329 183" width="329" height="183"><defs><clipPath clipPathUnits="userSpaceOnUse" id="cp1"><path d="m159-0.18h19v183h-19z"/></clipPath><clipPath clipPathUnits="userSpaceOnUse" id="cp2"><path d="m76.82 82h183v19h-183z"/></clipPath></defs><style>.a{fill:#004aad}.b{fill:#5ce1e6}.c{fill:#ff3131}.d{fill:none;stroke:#003174;stroke-width:1.5}</style><g clip-path="url(#cp1)"><path fill-rule="evenodd" class="a" d="m177.3 5c0-1.4-0.6-2.7-1.6-3.7-1-1-2.3-1.5-3.7-1.5-2.2 0-4.8 0-7 0-2.9 0-5.3 2.3-5.3 5.2 0 26.6 0 146.3 0 172.9 0 1.4 0.6 2.7 1.6 3.7 0.9 1 2.3 1.5 3.7 1.5 2.2 0 4.8 0 7 0 1.4 0 2.7-0.5 3.7-1.5 1-1 1.6-2.3 1.6-3.7 0-26.6 0-146.3 0-172.9z"/></g><g clip-path="url(#cp2)"><path fill-rule="evenodd" class="a" d="m82.1 82.7c-1.4 0-2.8 0.5-3.7 1.5-1 1-1.6 2.3-1.6 3.7 0 2.3 0 4.9 0 7.1 0 2.9 2.4 5.2 5.3 5.2 26.5 0 146.2 0 172.8 0 1.4 0 2.7-0.5 3.7-1.5 1-1 1.6-2.3 1.6-3.7 0-2.3 0-4.8 0-7.1 0-1.4-0.6-2.7-1.6-3.7-1-1-2.3-1.5-3.7-1.5-26.6 0-146.2 0-172.8 0z"/></g><path class="a" d="m249.2 91.4q0 2-0.1 4 0 2-0.2 4-0.2 1.9-0.5 3.9-0.3 2-0.7 3.9-0.4 1.9-0.9 3.9-0.5 1.9-1 3.8-0.6 1.9-1.3 3.8-0.6 1.8-1.4 3.7-0.8 1.8-1.6 3.6-0.9 1.8-1.8 3.5-0.9 1.8-1.9 3.5-1.1 1.7-2.2 3.3-1.1 1.7-2.2 3.3-1.2 1.5-2.5 3.1-1.2 1.5-2.6 3-1.3 1.5-2.7 2.9-1.4 1.4-2.9 2.7-1.5 1.3-3 2.6-1.5 1.2-3.1 2.4-1.6 1.2-3.2 2.3-1.7 1.1-3.4 2.1-1.7 1-3.4 2-1.8 0.9-3.6 1.8-1.8 0.8-3.6 1.6-1.8 0.7-3.7 1.4-1.9 0.7-3.8 1.2-1.9 0.6-3.8 1.1-1.9 0.5-3.9 0.9-1.9 0.3-3.9 0.6-1.9 0.3-3.9 0.5-2 0.2-4 0.3-1.9 0.1-3.9 0.1-2 0-4-0.1-2-0.1-3.9-0.3-2-0.2-4-0.5-1.9-0.3-3.9-0.6-1.9-0.4-3.8-0.9-2-0.5-3.9-1.1-1.9-0.5-3.7-1.2-1.9-0.7-3.7-1.4-1.9-0.8-3.7-1.6-1.7-0.9-3.5-1.8-1.7-1-3.4-2-1.7-1-3.4-2.1-1.6-1.1-3.2-2.3-1.6-1.2-3.2-2.4-1.5-1.3-3-2.6-1.4-1.3-2.8-2.7-1.4-1.4-2.8-2.9-1.3-1.5-2.5-3-1.3-1.6-2.5-3.1-1.2-1.6-2.3-3.3-1.1-1.6-2.1-3.3-1-1.7-1.9-3.5-1-1.7-1.8-3.5-0.9-1.8-1.6-3.6-0.8-1.9-1.5-3.7-0.6-1.9-1.2-3.8-0.6-1.9-1.1-3.8-0.4-2-0.8-3.9-0.4-1.9-0.7-3.9-0.3-2-0.5-3.9-0.2-2-0.3-4-0.1-2-0.1-4 0-1.9 0.1-3.9 0.1-2 0.3-4 0.2-1.9 0.5-3.9 0.3-2 0.7-3.9 0.4-2 0.8-3.9 0.5-1.9 1.1-3.8 0.6-1.9 1.2-3.8 0.7-1.8 1.5-3.7 0.7-1.8 1.6-3.6 0.8-1.8 1.8-3.5 0.9-1.8 1.9-3.5 1-1.7 2.1-3.3 1.1-1.7 2.3-3.3 1.2-1.6 2.5-3.1 1.2-1.5 2.5-3 1.4-1.5 2.8-2.9 1.4-1.4 2.8-2.7 1.5-1.3 3-2.6 1.6-1.2 3.2-2.4 1.6-1.2 3.2-2.3 1.7-1.1 3.4-2.1 1.7-1 3.4-2 1.8-0.9 3.5-1.8 1.8-0.8 3.7-1.6 1.8-0.7 3.7-1.4 1.8-0.7 3.7-1.2 1.9-0.6 3.9-1.1 1.9-0.5 3.8-0.9 2-0.4 3.9-0.6 2-0.3 4-0.5 1.9-0.2 3.9-0.3 2-0.1 4-0.1 2 0 3.9 0.1 2 0.1 4 0.3 2 0.2 3.9 0.5 2 0.2 3.9 0.6 2 0.4 3.9 0.9 1.9 0.5 3.8 1.1 1.9 0.5 3.8 1.2 1.9 0.7 3.7 1.4 1.8 0.8 3.6 1.6 1.8 0.9 3.6 1.8 1.7 1 3.4 2 1.7 1 3.4 2.1 1.6 1.1 3.2 2.3 1.6 1.2 3.1 2.4 1.5 1.3 3 2.6 1.5 1.3 2.9 2.7 1.4 1.4 2.7 2.9 1.4 1.5 2.6 3 1.3 1.5 2.5 3.1 1.1 1.6 2.2 3.3 1.1 1.6 2.2 3.3 1 1.7 1.9 3.5 0.9 1.7 1.8 3.5 0.8 1.8 1.6 3.6 0.8 1.9 1.4 3.7 0.7 1.9 1.3 3.8 0.5 1.9 1 3.8 0.5 1.9 0.9 3.9 0.4 1.9 0.7 3.9 0.3 2 0.5 3.9 0.2 2 0.2 4 0.1 2 0.1 3.9z"/><path fill-rule="evenodd" class="b" d="m221.3 67.4c-2.1 1.4-2.9 4-2.1 6.4 2 5.5 3 11.5 3 17.6 0 29.7-24.1 53.8-53.7 53.8-13.5 0-25.8-5-35.3-13.3-1.8-1.6-4.6-1.8-6.6-0.4-0.9 0.6-1.9 1.2-2.8 1.9-1.4 0.9-2.2 2.4-2.4 4-0.1 1.7 0.5 3.3 1.7 4.4 12 10.8 28 17.4 45.4 17.4 37.4 0 67.7-30.4 67.7-67.8 0-8.1-1.4-16-4-23.3-0.6-1.5-1.9-2.7-3.5-3.2-1.6-0.5-3.3-0.3-4.7 0.7-0.9 0.6-1.9 1.2-2.7 1.8zm-105.5 48.3c2-1.4 2.9-4 2-6.3-2-5.6-3-11.7-3-18 0-29.6 24-53.7 53.7-53.7 13.6 0 26 5.1 35.4 13.4 1.9 1.7 4.7 1.9 6.7 0.5 0.9-0.6 1.9-1.2 2.8-1.9 1.3-0.9 2.2-2.4 2.3-4 0.2-1.6-0.4-3.2-1.6-4.4-12.1-10.9-28.1-17.6-45.6-17.6-37.4 0-67.8 30.4-67.8 67.7 0 8.3 1.5 16.3 4.2 23.6 0.6 1.6 1.9 2.8 3.5 3.3 1.6 0.5 3.3 0.2 4.7-0.7 0.9-0.6 1.8-1.3 2.7-1.9z"/><path fill-rule="evenodd" class="c" d="m199.4 70.4l2.2 0.5q0.3-0.1 0.6-0.2c0.5-0.1 1.1-0.2 1.7-0.3 1-0.1 1.9-0.1 1.9-0.1 0.5-0.1 1.1 0.2 1.3 0.7 0.2 0.6-0.1 1.1-0.6 1.3 0 0-0.7 0.5-1.6 1-0.5 0.3-1.1 0.5-1.5 0.7-0.6 0.2-1.1 0.3-1.1 0.3q-0.4 0.1-0.8 0l-3.6-0.8q-0.4-0.1-0.6-0.3-0.3 0.6-0.4 1.5c-0.2 1.3 0.5 6.5-0.7 9.9-1 2.6-2.8 4.6-4 5.6l8.4 4.3c0.9-0.3 2.6-0.8 4.4-1.3 2.6-0.6 5.2-1.1 5.2-1.1 0.5-0.2 1.1 0.1 1.3 0.7 0.2 0.5-0.1 1.1-0.6 1.3 0 0-2.4 1.1-4.9 2.1-2.4 0.9-4.9 1.8-4.9 1.8-0.4 0.1-0.9 0.1-1.3-0.1l-9.2-4.7c-0.6 2.6-1.8 7.5-3.7 11.5q0.1 0.1 0.2 0.2c0 0 3.3 2.9 6.1 5.4 2.2 2 4 3.7 4 3.7 0.4 0.3 0.6 0.7 0.6 1.1 0 0 0.2 1.5 0.3 3.1 0.2 2.3 0.3 4.8 0.3 4.8 0 0.6-0.3 1.1-0.9 1.1-0.5 0.1-1.1-0.3-1.1-0.9 0 0-0.7-2.5-1.2-4.7-0.2-0.9-0.4-1.8-0.5-2.4-0.7-0.6-2.1-1.9-3.7-3.2-2.3-2-4.8-4.3-5.7-5.2-0.9 1.4-1.9 2.6-3 3.3q-0.9 0.7-2 1.4c0.2 0.3 0.4 0.7 0.4 1.1l-0.2 12.3c0 0.5-0.3 1-0.7 1.3 0 0-1.3 0.9-3.1 2-1.4 0.9-3.1 1.9-4.7 2.9-2.8 1.6-5.4 3-5.4 3-0.4 0.3-1.1 0.1-1.4-0.4-0.3-0.4-0.2-1.1 0.2-1.4 0 0 2.3-1.8 4.9-3.8 1.5-1.1 3.1-2.2 4.5-3.2 0.9-0.6 1.8-1.2 2.3-1.6l0.2-10.3c-6.8 4-16 8.3-24.3 8.2-9.4-0.1-15.9-9.8-15.9-9.8 0 0-6.9-9.4-3.8-18.3 2.8-7.7 10-15 16-20l-9.8-3.3c-0.5 0.4-1.3 0.9-2.3 1.6-1.3 1-2.9 2.1-4.5 3.1-2.7 1.8-5.2 3.3-5.2 3.3-0.4 0.3-1.1 0.2-1.4-0.3-0.4-0.4-0.3-1.1 0.1-1.4 0 0 2.2-1.9 4.7-4 1.4-1.2 3-2.4 4.3-3.5 1.7-1.3 2.9-2.2 2.9-2.2 0.5-0.3 1-0.4 1.5-0.2l11.6 4c0.4 0.1 0.7 0.4 0.9 0.7q1.1-0.8 2-1.4c1.1-0.8 2.5-1.3 4.1-1.7-0.5-1.1-1.8-4.3-2.9-7.1-0.7-2-1.4-3.7-1.7-4.6-0.5-0.3-1.3-0.8-2.2-1.3-1.8-1.2-4-2.6-4-2.6-0.5-0.3-0.7-0.9-0.4-1.5 0.2-0.5 0.8-0.6 1.3-0.4 0 0 2.4 1 4.4 1.9 1.5 0.7 2.9 1.3 2.9 1.3 0.3 0.2 0.6 0.6 0.8 0.9 0 0 1 2.4 2.1 5.1 1.4 3.5 3 7.6 3 7.6q0 0.1 0.1 0.3c4.5-0.4 9.4 0.1 12.1 0.4l-1.2-10.3c-0.1-0.4 0-0.9 0.3-1.2 0 0 1.6-2.1 3.4-4 1.7-2 3.6-3.9 3.6-3.9 0.3-0.4 0.9-0.5 1.4-0.1 0.4 0.4 0.5 1 0.2 1.5 0 0-1.4 2.2-2.8 4.4-1.1 1.6-2.1 3-2.7 3.8l1.1 9.3c1.4-0.7 3.9-1.8 6.7-1.8 3.6 0 8.3 2.5 9.6 2.7q0.8 0.1 1.4 0.1 0-0.3 0-0.6l0.4-3.7q0.1-0.4 0.3-0.8c0 0 0.3-0.4 0.7-0.8 0.4-0.4 0.8-0.9 1.2-1.3 0.7-0.7 1.4-1.1 1.4-1.1 0.4-0.5 1-0.5 1.5-0.2 0.4 0.4 0.5 1 0.2 1.5 0 0-0.3 0.8-0.8 1.8-0.2 0.5-0.5 1-0.8 1.4q-0.2 0.3-0.4 0.5l-0.2 2.3c0.3 0 0.6 0.2 1.1 0.5 0.1 0.4 0.2 0.8 0.1 1.3z"/><path class="d" d="m0.3 76.4l91.1 0.7"/><path class="d" d="m0.3 103.7h91.1"/><path class="d" d="m246.7 76.4l82.1 0.7"/><path class="d" d="m246.7 104.4l82.1 0.8"/></svg>